<?xml version="1.0" encoding="UTF-8" standalone="no"?><!DOCTYPE svg PUBLIC "-//W3C//DTD SVG 1.1//EN" "http://www.w3.org/Graphics/SVG/1.1/DTD/svg11.dtd"><svg width="100%" height="100%" viewBox="0 0 512 512" version="1.1" xmlns="http://www.w3.org/2000/svg" xmlns:xlink="http://www.w3.org/1999/xlink" xml:space="preserve" xmlns:serif="http://www.serif.com/" style="fill-rule:evenodd;clip-rule:evenodd;stroke-linejoin:round;stroke-miterlimit:2;"><g id="Paper"><path d="M457.669,132.057l-0,343.892l-330.002,-0l-0,-439.882l233.997,0l96.005,95.99Z" style="fill:#fcfcfc;"/></g><g id="Edges"><g id="Bottom"><path d="M457.732,475.997l-329.988,-0l-0,-9.141l329.988,0l0,9.141Z" style="fill:#ebebeb;"/></g><g id="Left"><rect x="127.666" y="36.059" width="9.141" height="439.89" style="fill:#ebebeb;"/></g><g id="Right"><rect x="448.51" y="131.632" width="9.227" height="344.338" style="fill:#ebebeb;"/></g><g id="Top"><path d="M362.108,44.597l-234.397,-0l-0,-8.529l234.397,-0l-0,8.529Z" style="fill:#ebebeb;"/></g><g id="Dog-Ear-Shadow" serif:id="Dog Ear Shadow"><rect x="366.003" y="131.641" width="82.508" height="7.3" style="fill:#c0c0c0;"/></g><path id="Dog-Ear" serif:id="Dog Ear" d="M457.669,131.399l-0,0.242l-95.572,0l-0,-95.573l0.24,-0l95.332,95.331Z" style="fill:#d5d5d5;"/></g><g id="Lock-Icon" serif:id="Lock Icon"><g><g><path d="M352.046,296.412c-0,0 -0.035,0 -0,0c-18.492,0 -29.56,11.647 -29.56,25.984l0,19.309l11.953,-0c0,-0 -0.068,-11.783 0,-18.492c0.068,-7.901 4.768,-15.597 17.607,-15.631c12.838,0 17.538,7.696 17.606,15.631c0.068,6.709 -0,18.492 -0,18.492l11.953,-0l0,-19.309c0,-14.337 -11.068,-25.984 -29.559,-25.984Z" style="fill:#ad7644;fill-rule:nonzero;"/></g><g><path d="M352.046,287.319c-0.035,0 -0.035,0 -0,0c-24.247,0 -38.721,15.257 -38.721,34.021l0,25.269l15.666,-0c-0,-0 -0.103,-15.427 -0,-24.247c0.102,-10.353 6.266,-20.433 23.055,-20.433c16.789,-0 22.952,10.08 23.055,20.433c0.102,8.82 -0,24.247 -0,24.247l15.665,-0l-0,-25.269c-0.034,-18.764 -14.508,-34.021 -38.72,-34.021Z" style="fill:url(#_Linear1);fill-rule:nonzero;"/></g><g><path d="M386.305,338.333l-68.553,0c-15.392,0 -27.992,12.601 -27.992,27.993l-0,59.698c-0,15.393 12.6,27.993 27.992,27.993l68.553,0c15.392,0 27.993,-12.6 27.993,-27.993l-0,-59.698c-0,-15.392 -12.601,-27.993 -27.993,-27.993Zm26.767,87.112c-0,15.087 -12.362,27.448 -27.449,27.448l-67.189,0c-15.087,0 -27.449,-12.361 -27.449,-27.448l0,-58.54c0,-15.086 12.362,-27.448 27.449,-27.448l67.189,0c15.087,0 27.449,12.362 27.449,27.448l-0,58.54Z" style="fill:none;fill-rule:nonzero;"/><path d="M385.623,339.457l-67.189,0c-15.087,0 -27.449,12.362 -27.449,27.448l0,58.506c0,15.086 12.362,27.448 27.449,27.448l67.189,0c15.087,0 27.449,-12.362 27.449,-27.448l-0,-58.506c-0,-15.086 -12.362,-27.448 -27.449,-27.448Z" style="fill:url(#_Linear2);fill-rule:nonzero;"/></g><g><path d="M359.878,400.006c-0.068,-0.783 -0.068,-1.6 -0.068,-2.281c5.755,-2.861 9.74,-8.786 9.74,-15.665c-0,-9.672 -7.833,-17.504 -17.504,-17.504c-9.672,-0 -17.505,7.832 -17.505,17.504c0,6.879 3.985,12.804 9.74,15.665c0.034,0.681 0,1.498 -0.068,2.281c-0.17,1.601 -4.7,20.059 -5.585,24.316c-0.885,4.188 -1.771,6.436 2.248,6.436l22.408,-0c4.018,-0 3.133,-2.248 2.247,-6.436c-0.987,-4.223 -5.483,-22.715 -5.653,-24.316Z" style="fill:#331d11;fill-rule:nonzero;"/></g></g></g><g id="Lettering-Shadow--Cut-" serif:id="Lettering Shadow (Cut)"><g><path d="M136.478,140.506l8.842,-0l17.506,107.834l-21.037,0l-3.605,-23.831l-1.706,-0l-0,-84.003Z" style="fill-opacity:0.2;"/></g><path d="M170.336,248.341l22.508,-107.836l79.958,0l-3.751,18.023l-57.744,-0l-5.149,24.493l55.83,0l-3.751,18.022l-55.83,0l-6.767,29.276l62.744,-0l-3.825,18.022l-84.223,-0Z" style="fill-opacity:0.2;fill-rule:nonzero;"/><path d="M268.174,213.401l21.111,-1.103c0.293,6.718 1.446,11.255 3.456,13.608c3.237,3.825 9.22,5.738 17.948,5.738c7.259,0 12.505,-1.301 15.742,-3.899c3.237,-2.598 4.854,-5.737 4.854,-9.415c0,-3.188 -1.324,-5.885 -3.971,-8.092c-1.864,-1.618 -6.976,-4.242 -15.338,-7.871c-8.36,-3.629 -14.465,-6.656 -18.315,-9.083c-3.85,-2.429 -6.877,-5.578 -9.084,-9.453c-2.206,-3.874 -3.311,-8.411 -3.311,-13.607c-0,-9.073 3.286,-16.6 9.856,-22.584c6.572,-5.982 16.086,-8.974 28.541,-8.974c12.653,0 22.448,2.967 29.387,8.902c6.939,5.933 10.751,13.828 11.438,23.685l-21.258,0.957c-0.54,-5.149 -2.402,-9.098 -5.59,-11.843c-3.188,-2.747 -7.896,-4.12 -14.123,-4.12c-6.131,0 -10.506,1.079 -13.131,3.236c-2.623,2.159 -3.935,4.88 -3.935,8.165c0,3.089 1.202,5.64 3.605,7.651c2.402,2.06 7.722,4.878 15.962,8.458c12.406,5.345 20.301,9.686 23.685,13.02c5.05,4.904 7.576,11.205 7.576,18.905c0,9.512 -3.763,17.641 -11.29,24.384c-7.528,6.743 -18.01,10.114 -31.446,10.114c-9.269,0 -17.299,-1.557 -24.091,-4.67c-6.791,-3.114 -11.585,-7.442 -14.381,-12.983c-2.794,-5.543 -4.093,-11.917 -3.897,-19.126Z" style="fill-opacity:0.2;fill-rule:nonzero;"/></g><g id="Lettering-Shadow--Uncut-" serif:id="Lettering Shadow (Uncut)"><g><path d="M138.221,224.539l-42.784,0l-12.955,23.802l-22.748,0l61.012,-107.862l24.555,-0l17.475,107.862l-20.94,0l-3.615,-23.802Zm-2.712,-17.927l-6.327,-43.386l-26.062,43.386l32.389,0Z" style="fill-opacity:0.2;fill-rule:nonzero;"/></g><g><path d="M170.334,248.341l22.446,-107.862l79.993,-0l-3.766,18.077l-57.698,0l-5.122,24.405l55.739,-0l-3.615,18.077l-55.89,0l-6.779,29.226l62.669,-0l-3.766,18.077l-84.211,0Z" style="fill-opacity:0.2;fill-rule:nonzero;"/></g><g><path d="M268.101,213.391l21.241,-1.054c0.301,6.628 1.356,11.148 3.465,13.558c3.163,3.766 9.189,5.724 17.926,5.724c7.231,0 12.504,-1.205 15.668,-3.916c3.314,-2.561 4.82,-5.725 4.82,-9.34c0,-3.164 -1.205,-5.876 -3.917,-8.135c-1.807,-1.657 -6.929,-4.218 -15.365,-7.834c-8.286,-3.615 -14.462,-6.628 -18.229,-9.039c-3.916,-2.561 -6.929,-5.724 -9.189,-9.49c-2.109,-3.917 -3.314,-8.437 -3.314,-13.709c-0,-9.039 3.314,-16.571 9.942,-22.446c6.478,-6.026 16.12,-9.039 28.473,-9.039c12.654,-0 22.446,3.013 29.375,8.888c6.93,5.875 10.847,13.859 11.45,23.651l-21.242,1.055c-0.451,-5.273 -2.41,-9.189 -5.573,-11.901c-3.164,-2.712 -7.834,-4.068 -14.161,-4.068c-6.026,0 -10.395,1.055 -13.106,3.164c-2.561,2.109 -3.917,4.971 -3.917,8.135c-0,3.163 1.205,5.724 3.615,7.683c2.411,2.109 7.683,4.971 15.969,8.436c12.353,5.423 20.337,9.792 23.651,13.106c5.122,4.821 7.533,11.148 7.533,18.831c-0,9.491 -3.767,17.626 -11.299,24.405c-7.532,6.779 -17.927,10.093 -31.334,10.093c-9.34,-0 -17.325,-1.507 -24.104,-4.67c-6.779,-3.013 -11.599,-7.382 -14.462,-12.956c-2.711,-5.574 -4.067,-11.901 -3.916,-19.132Z" style="fill-opacity:0.2;fill-rule:nonzero;"/></g></g><g id="Lettering"><g><path d="M132.721,219.039l-42.784,0l-12.955,23.802l-22.748,0l61.012,-107.862l24.555,-0l17.475,107.862l-20.94,0l-3.615,-23.802Zm-2.712,-17.927l-6.327,-43.386l-26.062,43.386l32.389,0Z" style="fill:#cfac6e;fill-rule:nonzero;"/></g><g><path d="M164.834,242.841l22.446,-107.862l79.993,-0l-3.766,18.077l-57.698,0l-5.122,24.405l55.739,-0l-3.615,18.077l-55.89,0l-6.779,29.226l62.669,-0l-3.766,18.077l-84.211,0Z" style="fill:#cfac6e;fill-rule:nonzero;"/></g><g><path d="M262.601,207.891l21.241,-1.054c0.301,6.628 1.356,11.148 3.465,13.558c3.163,3.766 9.189,5.724 17.926,5.724c7.231,0 12.504,-1.205 15.668,-3.916c3.314,-2.561 4.82,-5.725 4.82,-9.34c0,-3.164 -1.205,-5.876 -3.917,-8.135c-1.807,-1.657 -6.929,-4.218 -15.365,-7.834c-8.286,-3.615 -14.462,-6.628 -18.229,-9.039c-3.916,-2.561 -6.929,-5.724 -9.189,-9.49c-2.109,-3.917 -3.314,-8.437 -3.314,-13.709c-0,-9.039 3.314,-16.571 9.942,-22.446c6.478,-6.026 16.12,-9.039 28.473,-9.039c12.654,-0 22.446,3.013 29.375,8.888c6.93,5.875 10.847,13.859 11.45,23.651l-21.242,1.055c-0.451,-5.273 -2.41,-9.189 -5.573,-11.901c-3.164,-2.712 -7.834,-4.068 -14.161,-4.068c-6.026,0 -10.395,1.055 -13.106,3.164c-2.561,2.109 -3.917,4.971 -3.917,8.135c-0,3.163 1.205,5.724 3.615,7.683c2.411,2.109 7.683,4.971 15.969,8.436c12.353,5.423 20.337,9.792 23.651,13.106c5.122,4.821 7.533,11.148 7.533,18.831c-0,9.491 -3.767,17.626 -11.299,24.405c-7.532,6.779 -17.927,10.093 -31.334,10.093c-9.34,-0 -17.325,-1.507 -24.104,-4.67c-6.779,-3.013 -11.599,-7.382 -14.462,-12.956c-2.711,-5.574 -4.067,-11.901 -3.916,-19.132Z" style="fill:#cfac6e;fill-rule:nonzero;"/></g></g><defs><linearGradient id="_Linear1" x1="0" y1="0" x2="1" y2="0" gradientUnits="userSpaceOnUse" gradientTransform="matrix(3.63102e-15,59.2991,-59.2991,3.63102e-15,352.029,287.313)"><stop offset="0" style="stop-color:#ede6d5;stop-opacity:1"/><stop offset="0.08" style="stop-color:#f0e7d1;stop-opacity:1"/><stop offset="0.2" style="stop-color:#f7e8c6;stop-opacity:1"/><stop offset="0.24" style="stop-color:#fbebc3;stop-opacity:1"/><stop offset="0.37" style="stop-color:#fae8bf;stop-opacity:1"/><stop offset="0.49" style="stop-color:#f6e1b5;stop-opacity:1"/><stop offset="0.6" style="stop-color:#efd6a3;stop-opacity:1"/><stop offset="0.72" style="stop-color:#e7c78d;stop-opacity:1"/><stop offset="0.83" style="stop-color:#ddb473;stop-opacity:1"/><stop offset="0.91" style="stop-color:#d4a45a;stop-opacity:1"/><stop offset="1" style="stop-color:#d4a45a;stop-opacity:1"/></linearGradient><linearGradient id="_Linear2" x1="0" y1="0" x2="1" y2="0" gradientUnits="userSpaceOnUse" gradientTransform="matrix(6.94502e-15,113.421,-113.421,6.94502e-15,352.029,339.469)"><stop offset="0" style="stop-color:#f3e9c3;stop-opacity:1"/><stop offset="0.12" style="stop-color:#ebdaa7;stop-opacity:1"/><stop offset="0.38" style="stop-color:#d5b67a;stop-opacity:1"/><stop offset="0.6" style="stop-color:#c79f5d;stop-opacity:1"/><stop offset="0.71" style="stop-color:#c29753;stop-opacity:1"/><stop offset="0.76" style="stop-color:#bc914f;stop-opacity:1"/><stop offset="0.82" style="stop-color:#ae8245;stop-opacity:1"/><stop offset="0.9" style="stop-color:#966c36;stop-opacity:1"/><stop offset="0.95" style="stop-color:#82592a;stop-opacity:1"/><stop offset="1" style="stop-color:#82592a;stop-opacity:1"/></linearGradient></defs></svg>